<svg width="24" height="24" viewBox="0 0 24 24" fill="none" xmlns="http://www.w3.org/2000/svg">
<rect x="4.5" y="5.50012" width="5" height="12" rx="2.5" fill="white" stroke="black"/>
<rect x="14.7404" y="5.50012" width="5" height="12" rx="2.5" fill="white" stroke="black"/>
<path d="M5.39697 6.11328C6.37407 5.26414 7.82302 5.30802 8.74658 6.17578L8.92334 6.36035L13.9097 12.0977C14.8154 13.1398 14.7047 14.7183 13.6626 15.624C12.6857 16.473 11.2375 16.4289 10.314 15.5615L10.1362 15.377L5.1499 9.63965C4.30095 8.66272 4.34508 7.21458 5.2124 6.29102L5.39697 6.11328Z" fill="#F96859" stroke="black"/>
<path d="M15.3303 6.36035C16.1794 5.38342 17.6201 5.22489 18.6555 5.95508L18.8567 6.11328C19.8337 6.96238 19.9922 8.40301 19.262 9.43848L19.1038 9.63965L14.1165 15.3779C13.2107 16.42 11.6322 16.5307 10.5901 15.625C9.61312 14.7759 9.4545 13.3353 10.1848 12.2998L10.343 12.0986L15.3303 6.36035Z" fill="#FEB835" stroke="black"/>
</svg>
